M48
; DRILL file {KiCad (5.1.9-1-g591a07d2d9)-1} date 07/28/21 01:57:01
; FORMAT={-:-/ absolute / metric / decimal}
; #@! TF.CreationDate,2021-07-28T01:57:01-06:00
; #@! TF.GenerationSoftware,Kicad,Pcbnew,(5.1.9-1-g591a07d2d9)-1
; #@! TF.FileFunction,Plated,1,2,PTH
FMAT,2
METRIC
T1C0.400
T2C0.600
T3C0.813
T4C1.000
T5C1.470
T6C1.800
%
G90
G05
T1
X105.75Y-111.5
X106.25Y-86.0
X106.725Y-102.275
X106.725Y-104.675
X107.0Y-111.5
X108.75Y-97.0
X109.03Y-84.72
X109.28Y-86.03
X109.7Y-114.3
X112.73Y-84.48
X112.9Y-107.7
X114.5Y-97.0
X115.617Y-98.617
X116.482Y-107.482
X117.25Y-105.75
X118.0Y-97.7
X120.0Y-95.75
X120.5Y-120.0
T3
X102.255Y-92.709
X102.255Y-95.249
X102.255Y-97.789
X102.255Y-100.329
T4
X87.73Y-89.019
X87.73Y-103.519
X90.23Y-89.019
X92.73Y-89.019
X92.73Y-103.519
X122.23Y-87.71
X122.23Y-90.25
X122.23Y-92.79
X124.77Y-87.71
X124.77Y-90.25
X124.77Y-92.79
T5
X87.42Y-117.98
X93.77Y-115.44
X106.47Y-117.98
X112.82Y-115.44
X125.52Y-117.98
X131.87Y-115.44
T2
G00X105.96Y-76.05
M15
G01X105.96Y-76.65
M16
G05
G00X105.96Y-79.98
M15
G01X105.96Y-81.08
M16
G05
G00X114.6Y-76.05
M15
G01X114.6Y-76.65
M16
G05
G00X114.6Y-79.98
M15
G01X114.6Y-81.08
M16
G05
T6
G00X83.98Y-97.069
M15
G01X83.98Y-95.969
M16
G05
G00X96.48Y-97.069
M15
G01X96.48Y-95.969
M16
G05
T0
M30
