%TF.GenerationSoftware,KiCad,Pcbnew,(5.1.9-1-g591a07d2d9)-1*%
%TF.CreationDate,2021-07-28T01:57:03-06:00*%
%TF.ProjectId,keyboard-layout,6b657962-6f61-4726-942d-6c61796f7574,rev?*%
%TF.SameCoordinates,Original*%
%TF.FileFunction,Profile,NP*%
%FSLAX46Y46*%
G04 Gerber Fmt 4.6, Leading zero omitted, Abs format (unit mm)*
G04 Created by KiCad (PCBNEW (5.1.9-1-g591a07d2d9)-1) date 2021-07-28 01:57:03*
%MOMM*%
%LPD*%
G01*
G04 APERTURE LIST*
%TA.AperFunction,Profile*%
%ADD10C,0.100000*%
%TD*%
G04 APERTURE END LIST*
D10*
X82700000Y-81300000D02*
X84200000Y-81300000D01*
X84200000Y-129100000D02*
X82700000Y-129100000D01*
X136300000Y-81300000D02*
X137800000Y-81300000D01*
X136300000Y-129100000D02*
X137800000Y-129100000D01*
X114800000Y-75200000D02*
X105700000Y-75200000D01*
X114800000Y-75200000D02*
G75*
G02*
X115400000Y-75800000I0J-600000D01*
G01*
X115400000Y-80500000D02*
X115400000Y-75800000D01*
X116500000Y-81300000D02*
X116200000Y-81300000D01*
X104300000Y-81300000D02*
X104000000Y-81300000D01*
X105100000Y-80500000D02*
X105100000Y-75800000D01*
X105100000Y-75800000D02*
G75*
G02*
X105700000Y-75200000I600000J0D01*
G01*
X81100000Y-82900000D02*
X81100000Y-127500000D01*
X104000000Y-81300000D02*
X84200000Y-81300000D01*
X136300000Y-129100000D02*
X84200000Y-129100000D01*
X139400000Y-82900000D02*
X139400000Y-127500000D01*
X116500000Y-81300000D02*
X136300000Y-81300000D01*
X139400000Y-127500000D02*
G75*
G02*
X137800000Y-129100000I-1600000J0D01*
G01*
X82700000Y-129100000D02*
G75*
G02*
X81100000Y-127500000I0J1600000D01*
G01*
X137800000Y-81300000D02*
G75*
G02*
X139400000Y-82900000I0J-1600000D01*
G01*
X81100000Y-82900000D02*
G75*
G02*
X82700000Y-81300000I1600000J0D01*
G01*
X105100000Y-80500000D02*
G75*
G02*
X104300000Y-81300000I-800000J0D01*
G01*
X116200000Y-81300000D02*
G75*
G02*
X115400000Y-80500000I0J800000D01*
G01*
M02*
