%TF.GenerationSoftware,KiCad,Pcbnew,(5.1.9-1-g591a07d2d9)-1*%
%TF.CreationDate,2021-07-28T01:57:03-06:00*%
%TF.ProjectId,keyboard-layout,6b657962-6f61-4726-942d-6c61796f7574,rev?*%
%TF.SameCoordinates,Original*%
%TF.FileFunction,Paste,Bot*%
%TF.FilePolarity,Positive*%
%FSLAX46Y46*%
G04 Gerber Fmt 4.6, Leading zero omitted, Abs format (unit mm)*
G04 Created by KiCad (PCBNEW (5.1.9-1-g591a07d2d9)-1) date 2021-07-28 01:57:03*
%MOMM*%
%LPD*%
G01*
G04 APERTURE LIST*
%ADD10R,1.200000X1.200000*%
%ADD11R,0.700000X0.600000*%
%ADD12R,0.700000X1.000000*%
%ADD13R,0.300000X2.450000*%
%ADD14R,0.600000X2.450000*%
%ADD15R,1.200000X1.400000*%
G04 APERTURE END LIST*
D10*
%TO.C,D_3*%
X113375000Y-119025000D03*
X113375000Y-122175000D03*
%TD*%
%TO.C,C1*%
G36*
G01*
X123150000Y-98512500D02*
X123150000Y-98987500D01*
G75*
G02*
X122912500Y-99225000I-237500J0D01*
G01*
X122312500Y-99225000D01*
G75*
G02*
X122075000Y-98987500I0J237500D01*
G01*
X122075000Y-98512500D01*
G75*
G02*
X122312500Y-98275000I237500J0D01*
G01*
X122912500Y-98275000D01*
G75*
G02*
X123150000Y-98512500I0J-237500D01*
G01*
G37*
G36*
G01*
X121425000Y-98512500D02*
X121425000Y-98987500D01*
G75*
G02*
X121187500Y-99225000I-237500J0D01*
G01*
X120587500Y-99225000D01*
G75*
G02*
X120350000Y-98987500I0J237500D01*
G01*
X120350000Y-98512500D01*
G75*
G02*
X120587500Y-98275000I237500J0D01*
G01*
X121187500Y-98275000D01*
G75*
G02*
X121425000Y-98512500I0J-237500D01*
G01*
G37*
%TD*%
%TO.C,C2*%
G36*
G01*
X122075000Y-106987500D02*
X122075000Y-106512500D01*
G75*
G02*
X122312500Y-106275000I237500J0D01*
G01*
X122912500Y-106275000D01*
G75*
G02*
X123150000Y-106512500I0J-237500D01*
G01*
X123150000Y-106987500D01*
G75*
G02*
X122912500Y-107225000I-237500J0D01*
G01*
X122312500Y-107225000D01*
G75*
G02*
X122075000Y-106987500I0J237500D01*
G01*
G37*
G36*
G01*
X120350000Y-106987500D02*
X120350000Y-106512500D01*
G75*
G02*
X120587500Y-106275000I237500J0D01*
G01*
X121187500Y-106275000D01*
G75*
G02*
X121425000Y-106512500I0J-237500D01*
G01*
X121425000Y-106987500D01*
G75*
G02*
X121187500Y-107225000I-237500J0D01*
G01*
X120587500Y-107225000D01*
G75*
G02*
X120350000Y-106987500I0J237500D01*
G01*
G37*
%TD*%
%TO.C,C3*%
G36*
G01*
X106425000Y-96762500D02*
X106425000Y-97237500D01*
G75*
G02*
X106187500Y-97475000I-237500J0D01*
G01*
X105587500Y-97475000D01*
G75*
G02*
X105350000Y-97237500I0J237500D01*
G01*
X105350000Y-96762500D01*
G75*
G02*
X105587500Y-96525000I237500J0D01*
G01*
X106187500Y-96525000D01*
G75*
G02*
X106425000Y-96762500I0J-237500D01*
G01*
G37*
G36*
G01*
X108150000Y-96762500D02*
X108150000Y-97237500D01*
G75*
G02*
X107912500Y-97475000I-237500J0D01*
G01*
X107312500Y-97475000D01*
G75*
G02*
X107075000Y-97237500I0J237500D01*
G01*
X107075000Y-96762500D01*
G75*
G02*
X107312500Y-96525000I237500J0D01*
G01*
X107912500Y-96525000D01*
G75*
G02*
X108150000Y-96762500I0J-237500D01*
G01*
G37*
%TD*%
%TO.C,C4*%
G36*
G01*
X113487500Y-95812500D02*
X113012500Y-95812500D01*
G75*
G02*
X112775000Y-95575000I0J237500D01*
G01*
X112775000Y-94975000D01*
G75*
G02*
X113012500Y-94737500I237500J0D01*
G01*
X113487500Y-94737500D01*
G75*
G02*
X113725000Y-94975000I0J-237500D01*
G01*
X113725000Y-95575000D01*
G75*
G02*
X113487500Y-95812500I-237500J0D01*
G01*
G37*
G36*
G01*
X113487500Y-97537500D02*
X113012500Y-97537500D01*
G75*
G02*
X112775000Y-97300000I0J237500D01*
G01*
X112775000Y-96700000D01*
G75*
G02*
X113012500Y-96462500I237500J0D01*
G01*
X113487500Y-96462500D01*
G75*
G02*
X113725000Y-96700000I0J-237500D01*
G01*
X113725000Y-97300000D01*
G75*
G02*
X113487500Y-97537500I-237500J0D01*
G01*
G37*
%TD*%
%TO.C,C5*%
G36*
G01*
X113862500Y-107162500D02*
X114337500Y-107162500D01*
G75*
G02*
X114575000Y-107400000I0J-237500D01*
G01*
X114575000Y-108000000D01*
G75*
G02*
X114337500Y-108237500I-237500J0D01*
G01*
X113862500Y-108237500D01*
G75*
G02*
X113625000Y-108000000I0J237500D01*
G01*
X113625000Y-107400000D01*
G75*
G02*
X113862500Y-107162500I237500J0D01*
G01*
G37*
G36*
G01*
X113862500Y-108887500D02*
X114337500Y-108887500D01*
G75*
G02*
X114575000Y-109125000I0J-237500D01*
G01*
X114575000Y-109725000D01*
G75*
G02*
X114337500Y-109962500I-237500J0D01*
G01*
X113862500Y-109962500D01*
G75*
G02*
X113625000Y-109725000I0J237500D01*
G01*
X113625000Y-109125000D01*
G75*
G02*
X113862500Y-108887500I237500J0D01*
G01*
G37*
%TD*%
%TO.C,C6*%
G36*
G01*
X107262500Y-98762500D02*
X107262500Y-99237500D01*
G75*
G02*
X107025000Y-99475000I-237500J0D01*
G01*
X106425000Y-99475000D01*
G75*
G02*
X106187500Y-99237500I0J237500D01*
G01*
X106187500Y-98762500D01*
G75*
G02*
X106425000Y-98525000I237500J0D01*
G01*
X107025000Y-98525000D01*
G75*
G02*
X107262500Y-98762500I0J-237500D01*
G01*
G37*
G36*
G01*
X105537500Y-98762500D02*
X105537500Y-99237500D01*
G75*
G02*
X105300000Y-99475000I-237500J0D01*
G01*
X104700000Y-99475000D01*
G75*
G02*
X104462500Y-99237500I0J237500D01*
G01*
X104462500Y-98762500D01*
G75*
G02*
X104700000Y-98525000I237500J0D01*
G01*
X105300000Y-98525000D01*
G75*
G02*
X105537500Y-98762500I0J-237500D01*
G01*
G37*
%TD*%
%TO.C,C7*%
G36*
G01*
X117737500Y-101787500D02*
X117262500Y-101787500D01*
G75*
G02*
X117025000Y-101550000I0J237500D01*
G01*
X117025000Y-100950000D01*
G75*
G02*
X117262500Y-100712500I237500J0D01*
G01*
X117737500Y-100712500D01*
G75*
G02*
X117975000Y-100950000I0J-237500D01*
G01*
X117975000Y-101550000D01*
G75*
G02*
X117737500Y-101787500I-237500J0D01*
G01*
G37*
G36*
G01*
X117737500Y-100062500D02*
X117262500Y-100062500D01*
G75*
G02*
X117025000Y-99825000I0J237500D01*
G01*
X117025000Y-99225000D01*
G75*
G02*
X117262500Y-98987500I237500J0D01*
G01*
X117737500Y-98987500D01*
G75*
G02*
X117975000Y-99225000I0J-237500D01*
G01*
X117975000Y-99825000D01*
G75*
G02*
X117737500Y-100062500I-237500J0D01*
G01*
G37*
%TD*%
%TO.C,C8*%
G36*
G01*
X111792500Y-95812500D02*
X111317500Y-95812500D01*
G75*
G02*
X111080000Y-95575000I0J237500D01*
G01*
X111080000Y-94975000D01*
G75*
G02*
X111317500Y-94737500I237500J0D01*
G01*
X111792500Y-94737500D01*
G75*
G02*
X112030000Y-94975000I0J-237500D01*
G01*
X112030000Y-95575000D01*
G75*
G02*
X111792500Y-95812500I-237500J0D01*
G01*
G37*
G36*
G01*
X111792500Y-97537500D02*
X111317500Y-97537500D01*
G75*
G02*
X111080000Y-97300000I0J237500D01*
G01*
X111080000Y-96700000D01*
G75*
G02*
X111317500Y-96462500I237500J0D01*
G01*
X111792500Y-96462500D01*
G75*
G02*
X112030000Y-96700000I0J-237500D01*
G01*
X112030000Y-97300000D01*
G75*
G02*
X111792500Y-97537500I-237500J0D01*
G01*
G37*
%TD*%
%TO.C,CB1*%
G36*
G01*
X105237500Y-106650000D02*
X104762500Y-106650000D01*
G75*
G02*
X104525000Y-106412500I0J237500D01*
G01*
X104525000Y-105812500D01*
G75*
G02*
X104762500Y-105575000I237500J0D01*
G01*
X105237500Y-105575000D01*
G75*
G02*
X105475000Y-105812500I0J-237500D01*
G01*
X105475000Y-106412500D01*
G75*
G02*
X105237500Y-106650000I-237500J0D01*
G01*
G37*
G36*
G01*
X105237500Y-104925000D02*
X104762500Y-104925000D01*
G75*
G02*
X104525000Y-104687500I0J237500D01*
G01*
X104525000Y-104087500D01*
G75*
G02*
X104762500Y-103850000I237500J0D01*
G01*
X105237500Y-103850000D01*
G75*
G02*
X105475000Y-104087500I0J-237500D01*
G01*
X105475000Y-104687500D01*
G75*
G02*
X105237500Y-104925000I-237500J0D01*
G01*
G37*
%TD*%
%TO.C,CB2*%
G36*
G01*
X104762500Y-102075000D02*
X105237500Y-102075000D01*
G75*
G02*
X105475000Y-102312500I0J-237500D01*
G01*
X105475000Y-102912500D01*
G75*
G02*
X105237500Y-103150000I-237500J0D01*
G01*
X104762500Y-103150000D01*
G75*
G02*
X104525000Y-102912500I0J237500D01*
G01*
X104525000Y-102312500D01*
G75*
G02*
X104762500Y-102075000I237500J0D01*
G01*
G37*
G36*
G01*
X104762500Y-100350000D02*
X105237500Y-100350000D01*
G75*
G02*
X105475000Y-100587500I0J-237500D01*
G01*
X105475000Y-101187500D01*
G75*
G02*
X105237500Y-101425000I-237500J0D01*
G01*
X104762500Y-101425000D01*
G75*
G02*
X104525000Y-101187500I0J237500D01*
G01*
X104525000Y-100587500D01*
G75*
G02*
X104762500Y-100350000I237500J0D01*
G01*
G37*
%TD*%
%TO.C,D_2*%
X94337500Y-119025000D03*
X94337500Y-122175000D03*
%TD*%
%TO.C,D_4*%
X100337500Y-119025000D03*
X100337500Y-122175000D03*
%TD*%
%TO.C,F1*%
G36*
G01*
X107125000Y-92450000D02*
X105875000Y-92450000D01*
G75*
G02*
X105625000Y-92200000I0J250000D01*
G01*
X105625000Y-91275000D01*
G75*
G02*
X105875000Y-91025000I250000J0D01*
G01*
X107125000Y-91025000D01*
G75*
G02*
X107375000Y-91275000I0J-250000D01*
G01*
X107375000Y-92200000D01*
G75*
G02*
X107125000Y-92450000I-250000J0D01*
G01*
G37*
G36*
G01*
X107125000Y-89475000D02*
X105875000Y-89475000D01*
G75*
G02*
X105625000Y-89225000I0J250000D01*
G01*
X105625000Y-88300000D01*
G75*
G02*
X105875000Y-88050000I250000J0D01*
G01*
X107125000Y-88050000D01*
G75*
G02*
X107375000Y-88300000I0J-250000D01*
G01*
X107375000Y-89225000D01*
G75*
G02*
X107125000Y-89475000I-250000J0D01*
G01*
G37*
%TD*%
%TO.C,R1*%
G36*
G01*
X124500000Y-95299999D02*
X124500000Y-96200001D01*
G75*
G02*
X124250001Y-96450000I-249999J0D01*
G01*
X123549999Y-96450000D01*
G75*
G02*
X123300000Y-96200001I0J249999D01*
G01*
X123300000Y-95299999D01*
G75*
G02*
X123549999Y-95050000I249999J0D01*
G01*
X124250001Y-95050000D01*
G75*
G02*
X124500000Y-95299999I0J-249999D01*
G01*
G37*
G36*
G01*
X122500000Y-95299999D02*
X122500000Y-96200001D01*
G75*
G02*
X122250001Y-96450000I-249999J0D01*
G01*
X121549999Y-96450000D01*
G75*
G02*
X121300000Y-96200001I0J249999D01*
G01*
X121300000Y-95299999D01*
G75*
G02*
X121549999Y-95050000I249999J0D01*
G01*
X122250001Y-95050000D01*
G75*
G02*
X122500000Y-95299999I0J-249999D01*
G01*
G37*
%TD*%
%TO.C,R2*%
G36*
G01*
X104150000Y-109700001D02*
X104150000Y-108799999D01*
G75*
G02*
X104399999Y-108550000I249999J0D01*
G01*
X105100001Y-108550000D01*
G75*
G02*
X105350000Y-108799999I0J-249999D01*
G01*
X105350000Y-109700001D01*
G75*
G02*
X105100001Y-109950000I-249999J0D01*
G01*
X104399999Y-109950000D01*
G75*
G02*
X104150000Y-109700001I0J249999D01*
G01*
G37*
G36*
G01*
X102150000Y-109700001D02*
X102150000Y-108799999D01*
G75*
G02*
X102399999Y-108550000I249999J0D01*
G01*
X103100001Y-108550000D01*
G75*
G02*
X103350000Y-108799999I0J-249999D01*
G01*
X103350000Y-109700001D01*
G75*
G02*
X103100001Y-109950000I-249999J0D01*
G01*
X102399999Y-109950000D01*
G75*
G02*
X102150000Y-109700001I0J249999D01*
G01*
G37*
%TD*%
%TO.C,R3*%
G36*
G01*
X109730001Y-93850000D02*
X108829999Y-93850000D01*
G75*
G02*
X108580000Y-93600001I0J249999D01*
G01*
X108580000Y-92899999D01*
G75*
G02*
X108829999Y-92650000I249999J0D01*
G01*
X109730001Y-92650000D01*
G75*
G02*
X109980000Y-92899999I0J-249999D01*
G01*
X109980000Y-93600001D01*
G75*
G02*
X109730001Y-93850000I-249999J0D01*
G01*
G37*
G36*
G01*
X109730001Y-91850000D02*
X108829999Y-91850000D01*
G75*
G02*
X108580000Y-91600001I0J249999D01*
G01*
X108580000Y-90899999D01*
G75*
G02*
X108829999Y-90650000I249999J0D01*
G01*
X109730001Y-90650000D01*
G75*
G02*
X109980000Y-90899999I0J-249999D01*
G01*
X109980000Y-91600001D01*
G75*
G02*
X109730001Y-91850000I-249999J0D01*
G01*
G37*
%TD*%
%TO.C,R4*%
G36*
G01*
X111730001Y-93850000D02*
X110829999Y-93850000D01*
G75*
G02*
X110580000Y-93600001I0J249999D01*
G01*
X110580000Y-92899999D01*
G75*
G02*
X110829999Y-92650000I249999J0D01*
G01*
X111730001Y-92650000D01*
G75*
G02*
X111980000Y-92899999I0J-249999D01*
G01*
X111980000Y-93600001D01*
G75*
G02*
X111730001Y-93850000I-249999J0D01*
G01*
G37*
G36*
G01*
X111730001Y-91850000D02*
X110829999Y-91850000D01*
G75*
G02*
X110580000Y-91600001I0J249999D01*
G01*
X110580000Y-90899999D01*
G75*
G02*
X110829999Y-90650000I249999J0D01*
G01*
X111730001Y-90650000D01*
G75*
G02*
X111980000Y-90899999I0J-249999D01*
G01*
X111980000Y-91600001D01*
G75*
G02*
X111730001Y-91850000I-249999J0D01*
G01*
G37*
%TD*%
%TO.C,R5*%
G36*
G01*
X104049999Y-83400000D02*
X104950001Y-83400000D01*
G75*
G02*
X105200000Y-83649999I0J-249999D01*
G01*
X105200000Y-84350001D01*
G75*
G02*
X104950001Y-84600000I-249999J0D01*
G01*
X104049999Y-84600000D01*
G75*
G02*
X103800000Y-84350001I0J249999D01*
G01*
X103800000Y-83649999D01*
G75*
G02*
X104049999Y-83400000I249999J0D01*
G01*
G37*
G36*
G01*
X104049999Y-85400000D02*
X104950001Y-85400000D01*
G75*
G02*
X105200000Y-85649999I0J-249999D01*
G01*
X105200000Y-86350001D01*
G75*
G02*
X104950001Y-86600000I-249999J0D01*
G01*
X104049999Y-86600000D01*
G75*
G02*
X103800000Y-86350001I0J249999D01*
G01*
X103800000Y-85649999D01*
G75*
G02*
X104049999Y-85400000I249999J0D01*
G01*
G37*
%TD*%
%TO.C,R6*%
G36*
G01*
X114850000Y-85799999D02*
X114850000Y-86700001D01*
G75*
G02*
X114600001Y-86950000I-249999J0D01*
G01*
X113899999Y-86950000D01*
G75*
G02*
X113650000Y-86700001I0J249999D01*
G01*
X113650000Y-85799999D01*
G75*
G02*
X113899999Y-85550000I249999J0D01*
G01*
X114600001Y-85550000D01*
G75*
G02*
X114850000Y-85799999I0J-249999D01*
G01*
G37*
G36*
G01*
X116850000Y-85799999D02*
X116850000Y-86700001D01*
G75*
G02*
X116600001Y-86950000I-249999J0D01*
G01*
X115899999Y-86950000D01*
G75*
G02*
X115650000Y-86700001I0J249999D01*
G01*
X115650000Y-85799999D01*
G75*
G02*
X115899999Y-85550000I249999J0D01*
G01*
X116600001Y-85550000D01*
G75*
G02*
X116850000Y-85799999I0J-249999D01*
G01*
G37*
%TD*%
%TO.C,RA1*%
G36*
G01*
X93200001Y-91850000D02*
X92299999Y-91850000D01*
G75*
G02*
X92050000Y-91600001I0J249999D01*
G01*
X92050000Y-90899999D01*
G75*
G02*
X92299999Y-90650000I249999J0D01*
G01*
X93200001Y-90650000D01*
G75*
G02*
X93450000Y-90899999I0J-249999D01*
G01*
X93450000Y-91600001D01*
G75*
G02*
X93200001Y-91850000I-249999J0D01*
G01*
G37*
G36*
G01*
X93200001Y-93850000D02*
X92299999Y-93850000D01*
G75*
G02*
X92050000Y-93600001I0J249999D01*
G01*
X92050000Y-92899999D01*
G75*
G02*
X92299999Y-92650000I249999J0D01*
G01*
X93200001Y-92650000D01*
G75*
G02*
X93450000Y-92899999I0J-249999D01*
G01*
X93450000Y-93600001D01*
G75*
G02*
X93200001Y-93850000I-249999J0D01*
G01*
G37*
%TD*%
%TO.C,RA2*%
G36*
G01*
X94150000Y-86950001D02*
X94150000Y-86049999D01*
G75*
G02*
X94399999Y-85800000I249999J0D01*
G01*
X95100001Y-85800000D01*
G75*
G02*
X95350000Y-86049999I0J-249999D01*
G01*
X95350000Y-86950001D01*
G75*
G02*
X95100001Y-87200000I-249999J0D01*
G01*
X94399999Y-87200000D01*
G75*
G02*
X94150000Y-86950001I0J249999D01*
G01*
G37*
G36*
G01*
X92150000Y-86950001D02*
X92150000Y-86049999D01*
G75*
G02*
X92399999Y-85800000I249999J0D01*
G01*
X93100001Y-85800000D01*
G75*
G02*
X93350000Y-86049999I0J-249999D01*
G01*
X93350000Y-86950001D01*
G75*
G02*
X93100001Y-87200000I-249999J0D01*
G01*
X92399999Y-87200000D01*
G75*
G02*
X92150000Y-86950001I0J249999D01*
G01*
G37*
%TD*%
%TO.C,RB1*%
G36*
G01*
X88200001Y-93850000D02*
X87299999Y-93850000D01*
G75*
G02*
X87050000Y-93600001I0J249999D01*
G01*
X87050000Y-92899999D01*
G75*
G02*
X87299999Y-92650000I249999J0D01*
G01*
X88200001Y-92650000D01*
G75*
G02*
X88450000Y-92899999I0J-249999D01*
G01*
X88450000Y-93600001D01*
G75*
G02*
X88200001Y-93850000I-249999J0D01*
G01*
G37*
G36*
G01*
X88200001Y-91850000D02*
X87299999Y-91850000D01*
G75*
G02*
X87050000Y-91600001I0J249999D01*
G01*
X87050000Y-90899999D01*
G75*
G02*
X87299999Y-90650000I249999J0D01*
G01*
X88200001Y-90650000D01*
G75*
G02*
X88450000Y-90899999I0J-249999D01*
G01*
X88450000Y-91600001D01*
G75*
G02*
X88200001Y-91850000I-249999J0D01*
G01*
G37*
%TD*%
%TO.C,RB2*%
G36*
G01*
X89150000Y-86950001D02*
X89150000Y-86049999D01*
G75*
G02*
X89399999Y-85800000I249999J0D01*
G01*
X90100001Y-85800000D01*
G75*
G02*
X90350000Y-86049999I0J-249999D01*
G01*
X90350000Y-86950001D01*
G75*
G02*
X90100001Y-87200000I-249999J0D01*
G01*
X89399999Y-87200000D01*
G75*
G02*
X89150000Y-86950001I0J249999D01*
G01*
G37*
G36*
G01*
X87150000Y-86950001D02*
X87150000Y-86049999D01*
G75*
G02*
X87399999Y-85800000I249999J0D01*
G01*
X88100001Y-85800000D01*
G75*
G02*
X88350000Y-86049999I0J-249999D01*
G01*
X88350000Y-86950001D01*
G75*
G02*
X88100001Y-87200000I-249999J0D01*
G01*
X87399999Y-87200000D01*
G75*
G02*
X87150000Y-86950001I0J249999D01*
G01*
G37*
%TD*%
%TO.C,U1*%
G36*
G01*
X108992500Y-98875000D02*
X109117500Y-98875000D01*
G75*
G02*
X109180000Y-98937500I0J-62500D01*
G01*
X109180000Y-99887500D01*
G75*
G02*
X109117500Y-99950000I-62500J0D01*
G01*
X108992500Y-99950000D01*
G75*
G02*
X108930000Y-99887500I0J62500D01*
G01*
X108930000Y-98937500D01*
G75*
G02*
X108992500Y-98875000I62500J0D01*
G01*
G37*
G36*
G01*
X109492500Y-98875000D02*
X109617500Y-98875000D01*
G75*
G02*
X109680000Y-98937500I0J-62500D01*
G01*
X109680000Y-99887500D01*
G75*
G02*
X109617500Y-99950000I-62500J0D01*
G01*
X109492500Y-99950000D01*
G75*
G02*
X109430000Y-99887500I0J62500D01*
G01*
X109430000Y-98937500D01*
G75*
G02*
X109492500Y-98875000I62500J0D01*
G01*
G37*
G36*
G01*
X109992500Y-98875000D02*
X110117500Y-98875000D01*
G75*
G02*
X110180000Y-98937500I0J-62500D01*
G01*
X110180000Y-99887500D01*
G75*
G02*
X110117500Y-99950000I-62500J0D01*
G01*
X109992500Y-99950000D01*
G75*
G02*
X109930000Y-99887500I0J62500D01*
G01*
X109930000Y-98937500D01*
G75*
G02*
X109992500Y-98875000I62500J0D01*
G01*
G37*
G36*
G01*
X110492500Y-98875000D02*
X110617500Y-98875000D01*
G75*
G02*
X110680000Y-98937500I0J-62500D01*
G01*
X110680000Y-99887500D01*
G75*
G02*
X110617500Y-99950000I-62500J0D01*
G01*
X110492500Y-99950000D01*
G75*
G02*
X110430000Y-99887500I0J62500D01*
G01*
X110430000Y-98937500D01*
G75*
G02*
X110492500Y-98875000I62500J0D01*
G01*
G37*
G36*
G01*
X110992500Y-98875000D02*
X111117500Y-98875000D01*
G75*
G02*
X111180000Y-98937500I0J-62500D01*
G01*
X111180000Y-99887500D01*
G75*
G02*
X111117500Y-99950000I-62500J0D01*
G01*
X110992500Y-99950000D01*
G75*
G02*
X110930000Y-99887500I0J62500D01*
G01*
X110930000Y-98937500D01*
G75*
G02*
X110992500Y-98875000I62500J0D01*
G01*
G37*
G36*
G01*
X111492500Y-98875000D02*
X111617500Y-98875000D01*
G75*
G02*
X111680000Y-98937500I0J-62500D01*
G01*
X111680000Y-99887500D01*
G75*
G02*
X111617500Y-99950000I-62500J0D01*
G01*
X111492500Y-99950000D01*
G75*
G02*
X111430000Y-99887500I0J62500D01*
G01*
X111430000Y-98937500D01*
G75*
G02*
X111492500Y-98875000I62500J0D01*
G01*
G37*
G36*
G01*
X111992500Y-98875000D02*
X112117500Y-98875000D01*
G75*
G02*
X112180000Y-98937500I0J-62500D01*
G01*
X112180000Y-99887500D01*
G75*
G02*
X112117500Y-99950000I-62500J0D01*
G01*
X111992500Y-99950000D01*
G75*
G02*
X111930000Y-99887500I0J62500D01*
G01*
X111930000Y-98937500D01*
G75*
G02*
X111992500Y-98875000I62500J0D01*
G01*
G37*
G36*
G01*
X112492500Y-98875000D02*
X112617500Y-98875000D01*
G75*
G02*
X112680000Y-98937500I0J-62500D01*
G01*
X112680000Y-99887500D01*
G75*
G02*
X112617500Y-99950000I-62500J0D01*
G01*
X112492500Y-99950000D01*
G75*
G02*
X112430000Y-99887500I0J62500D01*
G01*
X112430000Y-98937500D01*
G75*
G02*
X112492500Y-98875000I62500J0D01*
G01*
G37*
G36*
G01*
X112992500Y-98875000D02*
X113117500Y-98875000D01*
G75*
G02*
X113180000Y-98937500I0J-62500D01*
G01*
X113180000Y-99887500D01*
G75*
G02*
X113117500Y-99950000I-62500J0D01*
G01*
X112992500Y-99950000D01*
G75*
G02*
X112930000Y-99887500I0J62500D01*
G01*
X112930000Y-98937500D01*
G75*
G02*
X112992500Y-98875000I62500J0D01*
G01*
G37*
G36*
G01*
X113492500Y-98875000D02*
X113617500Y-98875000D01*
G75*
G02*
X113680000Y-98937500I0J-62500D01*
G01*
X113680000Y-99887500D01*
G75*
G02*
X113617500Y-99950000I-62500J0D01*
G01*
X113492500Y-99950000D01*
G75*
G02*
X113430000Y-99887500I0J62500D01*
G01*
X113430000Y-98937500D01*
G75*
G02*
X113492500Y-98875000I62500J0D01*
G01*
G37*
G36*
G01*
X113992500Y-98875000D02*
X114117500Y-98875000D01*
G75*
G02*
X114180000Y-98937500I0J-62500D01*
G01*
X114180000Y-99887500D01*
G75*
G02*
X114117500Y-99950000I-62500J0D01*
G01*
X113992500Y-99950000D01*
G75*
G02*
X113930000Y-99887500I0J62500D01*
G01*
X113930000Y-98937500D01*
G75*
G02*
X113992500Y-98875000I62500J0D01*
G01*
G37*
G36*
G01*
X114417500Y-100125000D02*
X115367500Y-100125000D01*
G75*
G02*
X115430000Y-100187500I0J-62500D01*
G01*
X115430000Y-100312500D01*
G75*
G02*
X115367500Y-100375000I-62500J0D01*
G01*
X114417500Y-100375000D01*
G75*
G02*
X114355000Y-100312500I0J62500D01*
G01*
X114355000Y-100187500D01*
G75*
G02*
X114417500Y-100125000I62500J0D01*
G01*
G37*
G36*
G01*
X114417500Y-100625000D02*
X115367500Y-100625000D01*
G75*
G02*
X115430000Y-100687500I0J-62500D01*
G01*
X115430000Y-100812500D01*
G75*
G02*
X115367500Y-100875000I-62500J0D01*
G01*
X114417500Y-100875000D01*
G75*
G02*
X114355000Y-100812500I0J62500D01*
G01*
X114355000Y-100687500D01*
G75*
G02*
X114417500Y-100625000I62500J0D01*
G01*
G37*
G36*
G01*
X114417500Y-101125000D02*
X115367500Y-101125000D01*
G75*
G02*
X115430000Y-101187500I0J-62500D01*
G01*
X115430000Y-101312500D01*
G75*
G02*
X115367500Y-101375000I-62500J0D01*
G01*
X114417500Y-101375000D01*
G75*
G02*
X114355000Y-101312500I0J62500D01*
G01*
X114355000Y-101187500D01*
G75*
G02*
X114417500Y-101125000I62500J0D01*
G01*
G37*
G36*
G01*
X114417500Y-101625000D02*
X115367500Y-101625000D01*
G75*
G02*
X115430000Y-101687500I0J-62500D01*
G01*
X115430000Y-101812500D01*
G75*
G02*
X115367500Y-101875000I-62500J0D01*
G01*
X114417500Y-101875000D01*
G75*
G02*
X114355000Y-101812500I0J62500D01*
G01*
X114355000Y-101687500D01*
G75*
G02*
X114417500Y-101625000I62500J0D01*
G01*
G37*
G36*
G01*
X114417500Y-102125000D02*
X115367500Y-102125000D01*
G75*
G02*
X115430000Y-102187500I0J-62500D01*
G01*
X115430000Y-102312500D01*
G75*
G02*
X115367500Y-102375000I-62500J0D01*
G01*
X114417500Y-102375000D01*
G75*
G02*
X114355000Y-102312500I0J62500D01*
G01*
X114355000Y-102187500D01*
G75*
G02*
X114417500Y-102125000I62500J0D01*
G01*
G37*
G36*
G01*
X114417500Y-102625000D02*
X115367500Y-102625000D01*
G75*
G02*
X115430000Y-102687500I0J-62500D01*
G01*
X115430000Y-102812500D01*
G75*
G02*
X115367500Y-102875000I-62500J0D01*
G01*
X114417500Y-102875000D01*
G75*
G02*
X114355000Y-102812500I0J62500D01*
G01*
X114355000Y-102687500D01*
G75*
G02*
X114417500Y-102625000I62500J0D01*
G01*
G37*
G36*
G01*
X114417500Y-103125000D02*
X115367500Y-103125000D01*
G75*
G02*
X115430000Y-103187500I0J-62500D01*
G01*
X115430000Y-103312500D01*
G75*
G02*
X115367500Y-103375000I-62500J0D01*
G01*
X114417500Y-103375000D01*
G75*
G02*
X114355000Y-103312500I0J62500D01*
G01*
X114355000Y-103187500D01*
G75*
G02*
X114417500Y-103125000I62500J0D01*
G01*
G37*
G36*
G01*
X114417500Y-103625000D02*
X115367500Y-103625000D01*
G75*
G02*
X115430000Y-103687500I0J-62500D01*
G01*
X115430000Y-103812500D01*
G75*
G02*
X115367500Y-103875000I-62500J0D01*
G01*
X114417500Y-103875000D01*
G75*
G02*
X114355000Y-103812500I0J62500D01*
G01*
X114355000Y-103687500D01*
G75*
G02*
X114417500Y-103625000I62500J0D01*
G01*
G37*
G36*
G01*
X114417500Y-104125000D02*
X115367500Y-104125000D01*
G75*
G02*
X115430000Y-104187500I0J-62500D01*
G01*
X115430000Y-104312500D01*
G75*
G02*
X115367500Y-104375000I-62500J0D01*
G01*
X114417500Y-104375000D01*
G75*
G02*
X114355000Y-104312500I0J62500D01*
G01*
X114355000Y-104187500D01*
G75*
G02*
X114417500Y-104125000I62500J0D01*
G01*
G37*
G36*
G01*
X114417500Y-104625000D02*
X115367500Y-104625000D01*
G75*
G02*
X115430000Y-104687500I0J-62500D01*
G01*
X115430000Y-104812500D01*
G75*
G02*
X115367500Y-104875000I-62500J0D01*
G01*
X114417500Y-104875000D01*
G75*
G02*
X114355000Y-104812500I0J62500D01*
G01*
X114355000Y-104687500D01*
G75*
G02*
X114417500Y-104625000I62500J0D01*
G01*
G37*
G36*
G01*
X114417500Y-105125000D02*
X115367500Y-105125000D01*
G75*
G02*
X115430000Y-105187500I0J-62500D01*
G01*
X115430000Y-105312500D01*
G75*
G02*
X115367500Y-105375000I-62500J0D01*
G01*
X114417500Y-105375000D01*
G75*
G02*
X114355000Y-105312500I0J62500D01*
G01*
X114355000Y-105187500D01*
G75*
G02*
X114417500Y-105125000I62500J0D01*
G01*
G37*
G36*
G01*
X113992500Y-105550000D02*
X114117500Y-105550000D01*
G75*
G02*
X114180000Y-105612500I0J-62500D01*
G01*
X114180000Y-106562500D01*
G75*
G02*
X114117500Y-106625000I-62500J0D01*
G01*
X113992500Y-106625000D01*
G75*
G02*
X113930000Y-106562500I0J62500D01*
G01*
X113930000Y-105612500D01*
G75*
G02*
X113992500Y-105550000I62500J0D01*
G01*
G37*
G36*
G01*
X113492500Y-105550000D02*
X113617500Y-105550000D01*
G75*
G02*
X113680000Y-105612500I0J-62500D01*
G01*
X113680000Y-106562500D01*
G75*
G02*
X113617500Y-106625000I-62500J0D01*
G01*
X113492500Y-106625000D01*
G75*
G02*
X113430000Y-106562500I0J62500D01*
G01*
X113430000Y-105612500D01*
G75*
G02*
X113492500Y-105550000I62500J0D01*
G01*
G37*
G36*
G01*
X112992500Y-105550000D02*
X113117500Y-105550000D01*
G75*
G02*
X113180000Y-105612500I0J-62500D01*
G01*
X113180000Y-106562500D01*
G75*
G02*
X113117500Y-106625000I-62500J0D01*
G01*
X112992500Y-106625000D01*
G75*
G02*
X112930000Y-106562500I0J62500D01*
G01*
X112930000Y-105612500D01*
G75*
G02*
X112992500Y-105550000I62500J0D01*
G01*
G37*
G36*
G01*
X112492500Y-105550000D02*
X112617500Y-105550000D01*
G75*
G02*
X112680000Y-105612500I0J-62500D01*
G01*
X112680000Y-106562500D01*
G75*
G02*
X112617500Y-106625000I-62500J0D01*
G01*
X112492500Y-106625000D01*
G75*
G02*
X112430000Y-106562500I0J62500D01*
G01*
X112430000Y-105612500D01*
G75*
G02*
X112492500Y-105550000I62500J0D01*
G01*
G37*
G36*
G01*
X111992500Y-105550000D02*
X112117500Y-105550000D01*
G75*
G02*
X112180000Y-105612500I0J-62500D01*
G01*
X112180000Y-106562500D01*
G75*
G02*
X112117500Y-106625000I-62500J0D01*
G01*
X111992500Y-106625000D01*
G75*
G02*
X111930000Y-106562500I0J62500D01*
G01*
X111930000Y-105612500D01*
G75*
G02*
X111992500Y-105550000I62500J0D01*
G01*
G37*
G36*
G01*
X111492500Y-105550000D02*
X111617500Y-105550000D01*
G75*
G02*
X111680000Y-105612500I0J-62500D01*
G01*
X111680000Y-106562500D01*
G75*
G02*
X111617500Y-106625000I-62500J0D01*
G01*
X111492500Y-106625000D01*
G75*
G02*
X111430000Y-106562500I0J62500D01*
G01*
X111430000Y-105612500D01*
G75*
G02*
X111492500Y-105550000I62500J0D01*
G01*
G37*
G36*
G01*
X110992500Y-105550000D02*
X111117500Y-105550000D01*
G75*
G02*
X111180000Y-105612500I0J-62500D01*
G01*
X111180000Y-106562500D01*
G75*
G02*
X111117500Y-106625000I-62500J0D01*
G01*
X110992500Y-106625000D01*
G75*
G02*
X110930000Y-106562500I0J62500D01*
G01*
X110930000Y-105612500D01*
G75*
G02*
X110992500Y-105550000I62500J0D01*
G01*
G37*
G36*
G01*
X110492500Y-105550000D02*
X110617500Y-105550000D01*
G75*
G02*
X110680000Y-105612500I0J-62500D01*
G01*
X110680000Y-106562500D01*
G75*
G02*
X110617500Y-106625000I-62500J0D01*
G01*
X110492500Y-106625000D01*
G75*
G02*
X110430000Y-106562500I0J62500D01*
G01*
X110430000Y-105612500D01*
G75*
G02*
X110492500Y-105550000I62500J0D01*
G01*
G37*
G36*
G01*
X109992500Y-105550000D02*
X110117500Y-105550000D01*
G75*
G02*
X110180000Y-105612500I0J-62500D01*
G01*
X110180000Y-106562500D01*
G75*
G02*
X110117500Y-106625000I-62500J0D01*
G01*
X109992500Y-106625000D01*
G75*
G02*
X109930000Y-106562500I0J62500D01*
G01*
X109930000Y-105612500D01*
G75*
G02*
X109992500Y-105550000I62500J0D01*
G01*
G37*
G36*
G01*
X109492500Y-105550000D02*
X109617500Y-105550000D01*
G75*
G02*
X109680000Y-105612500I0J-62500D01*
G01*
X109680000Y-106562500D01*
G75*
G02*
X109617500Y-106625000I-62500J0D01*
G01*
X109492500Y-106625000D01*
G75*
G02*
X109430000Y-106562500I0J62500D01*
G01*
X109430000Y-105612500D01*
G75*
G02*
X109492500Y-105550000I62500J0D01*
G01*
G37*
G36*
G01*
X108992500Y-105550000D02*
X109117500Y-105550000D01*
G75*
G02*
X109180000Y-105612500I0J-62500D01*
G01*
X109180000Y-106562500D01*
G75*
G02*
X109117500Y-106625000I-62500J0D01*
G01*
X108992500Y-106625000D01*
G75*
G02*
X108930000Y-106562500I0J62500D01*
G01*
X108930000Y-105612500D01*
G75*
G02*
X108992500Y-105550000I62500J0D01*
G01*
G37*
G36*
G01*
X107742500Y-105125000D02*
X108692500Y-105125000D01*
G75*
G02*
X108755000Y-105187500I0J-62500D01*
G01*
X108755000Y-105312500D01*
G75*
G02*
X108692500Y-105375000I-62500J0D01*
G01*
X107742500Y-105375000D01*
G75*
G02*
X107680000Y-105312500I0J62500D01*
G01*
X107680000Y-105187500D01*
G75*
G02*
X107742500Y-105125000I62500J0D01*
G01*
G37*
G36*
G01*
X107742500Y-104625000D02*
X108692500Y-104625000D01*
G75*
G02*
X108755000Y-104687500I0J-62500D01*
G01*
X108755000Y-104812500D01*
G75*
G02*
X108692500Y-104875000I-62500J0D01*
G01*
X107742500Y-104875000D01*
G75*
G02*
X107680000Y-104812500I0J62500D01*
G01*
X107680000Y-104687500D01*
G75*
G02*
X107742500Y-104625000I62500J0D01*
G01*
G37*
G36*
G01*
X107742500Y-104125000D02*
X108692500Y-104125000D01*
G75*
G02*
X108755000Y-104187500I0J-62500D01*
G01*
X108755000Y-104312500D01*
G75*
G02*
X108692500Y-104375000I-62500J0D01*
G01*
X107742500Y-104375000D01*
G75*
G02*
X107680000Y-104312500I0J62500D01*
G01*
X107680000Y-104187500D01*
G75*
G02*
X107742500Y-104125000I62500J0D01*
G01*
G37*
G36*
G01*
X107742500Y-103625000D02*
X108692500Y-103625000D01*
G75*
G02*
X108755000Y-103687500I0J-62500D01*
G01*
X108755000Y-103812500D01*
G75*
G02*
X108692500Y-103875000I-62500J0D01*
G01*
X107742500Y-103875000D01*
G75*
G02*
X107680000Y-103812500I0J62500D01*
G01*
X107680000Y-103687500D01*
G75*
G02*
X107742500Y-103625000I62500J0D01*
G01*
G37*
G36*
G01*
X107742500Y-103125000D02*
X108692500Y-103125000D01*
G75*
G02*
X108755000Y-103187500I0J-62500D01*
G01*
X108755000Y-103312500D01*
G75*
G02*
X108692500Y-103375000I-62500J0D01*
G01*
X107742500Y-103375000D01*
G75*
G02*
X107680000Y-103312500I0J62500D01*
G01*
X107680000Y-103187500D01*
G75*
G02*
X107742500Y-103125000I62500J0D01*
G01*
G37*
G36*
G01*
X107742500Y-102625000D02*
X108692500Y-102625000D01*
G75*
G02*
X108755000Y-102687500I0J-62500D01*
G01*
X108755000Y-102812500D01*
G75*
G02*
X108692500Y-102875000I-62500J0D01*
G01*
X107742500Y-102875000D01*
G75*
G02*
X107680000Y-102812500I0J62500D01*
G01*
X107680000Y-102687500D01*
G75*
G02*
X107742500Y-102625000I62500J0D01*
G01*
G37*
G36*
G01*
X107742500Y-102125000D02*
X108692500Y-102125000D01*
G75*
G02*
X108755000Y-102187500I0J-62500D01*
G01*
X108755000Y-102312500D01*
G75*
G02*
X108692500Y-102375000I-62500J0D01*
G01*
X107742500Y-102375000D01*
G75*
G02*
X107680000Y-102312500I0J62500D01*
G01*
X107680000Y-102187500D01*
G75*
G02*
X107742500Y-102125000I62500J0D01*
G01*
G37*
G36*
G01*
X107742500Y-101625000D02*
X108692500Y-101625000D01*
G75*
G02*
X108755000Y-101687500I0J-62500D01*
G01*
X108755000Y-101812500D01*
G75*
G02*
X108692500Y-101875000I-62500J0D01*
G01*
X107742500Y-101875000D01*
G75*
G02*
X107680000Y-101812500I0J62500D01*
G01*
X107680000Y-101687500D01*
G75*
G02*
X107742500Y-101625000I62500J0D01*
G01*
G37*
G36*
G01*
X107742500Y-101125000D02*
X108692500Y-101125000D01*
G75*
G02*
X108755000Y-101187500I0J-62500D01*
G01*
X108755000Y-101312500D01*
G75*
G02*
X108692500Y-101375000I-62500J0D01*
G01*
X107742500Y-101375000D01*
G75*
G02*
X107680000Y-101312500I0J62500D01*
G01*
X107680000Y-101187500D01*
G75*
G02*
X107742500Y-101125000I62500J0D01*
G01*
G37*
G36*
G01*
X107742500Y-100625000D02*
X108692500Y-100625000D01*
G75*
G02*
X108755000Y-100687500I0J-62500D01*
G01*
X108755000Y-100812500D01*
G75*
G02*
X108692500Y-100875000I-62500J0D01*
G01*
X107742500Y-100875000D01*
G75*
G02*
X107680000Y-100812500I0J62500D01*
G01*
X107680000Y-100687500D01*
G75*
G02*
X107742500Y-100625000I62500J0D01*
G01*
G37*
G36*
G01*
X107742500Y-100125000D02*
X108692500Y-100125000D01*
G75*
G02*
X108755000Y-100187500I0J-62500D01*
G01*
X108755000Y-100312500D01*
G75*
G02*
X108692500Y-100375000I-62500J0D01*
G01*
X107742500Y-100375000D01*
G75*
G02*
X107680000Y-100312500I0J62500D01*
G01*
X107680000Y-100187500D01*
G75*
G02*
X107742500Y-100125000I62500J0D01*
G01*
G37*
G36*
G01*
X109329999Y-100275000D02*
X109880001Y-100275000D01*
G75*
G02*
X110130000Y-100524999I0J-249999D01*
G01*
X110130000Y-101075001D01*
G75*
G02*
X109880001Y-101325000I-249999J0D01*
G01*
X109329999Y-101325000D01*
G75*
G02*
X109080000Y-101075001I0J249999D01*
G01*
X109080000Y-100524999D01*
G75*
G02*
X109329999Y-100275000I249999J0D01*
G01*
G37*
G36*
G01*
X110629999Y-100275000D02*
X111180001Y-100275000D01*
G75*
G02*
X111430000Y-100524999I0J-249999D01*
G01*
X111430000Y-101075001D01*
G75*
G02*
X111180001Y-101325000I-249999J0D01*
G01*
X110629999Y-101325000D01*
G75*
G02*
X110380000Y-101075001I0J249999D01*
G01*
X110380000Y-100524999D01*
G75*
G02*
X110629999Y-100275000I249999J0D01*
G01*
G37*
G36*
G01*
X111929999Y-100275000D02*
X112480001Y-100275000D01*
G75*
G02*
X112730000Y-100524999I0J-249999D01*
G01*
X112730000Y-101075001D01*
G75*
G02*
X112480001Y-101325000I-249999J0D01*
G01*
X111929999Y-101325000D01*
G75*
G02*
X111680000Y-101075001I0J249999D01*
G01*
X111680000Y-100524999D01*
G75*
G02*
X111929999Y-100275000I249999J0D01*
G01*
G37*
G36*
G01*
X113229999Y-100275000D02*
X113780001Y-100275000D01*
G75*
G02*
X114030000Y-100524999I0J-249999D01*
G01*
X114030000Y-101075001D01*
G75*
G02*
X113780001Y-101325000I-249999J0D01*
G01*
X113229999Y-101325000D01*
G75*
G02*
X112980000Y-101075001I0J249999D01*
G01*
X112980000Y-100524999D01*
G75*
G02*
X113229999Y-100275000I249999J0D01*
G01*
G37*
G36*
G01*
X109329999Y-101575000D02*
X109880001Y-101575000D01*
G75*
G02*
X110130000Y-101824999I0J-249999D01*
G01*
X110130000Y-102375001D01*
G75*
G02*
X109880001Y-102625000I-249999J0D01*
G01*
X109329999Y-102625000D01*
G75*
G02*
X109080000Y-102375001I0J249999D01*
G01*
X109080000Y-101824999D01*
G75*
G02*
X109329999Y-101575000I249999J0D01*
G01*
G37*
G36*
G01*
X110629999Y-101575000D02*
X111180001Y-101575000D01*
G75*
G02*
X111430000Y-101824999I0J-249999D01*
G01*
X111430000Y-102375001D01*
G75*
G02*
X111180001Y-102625000I-249999J0D01*
G01*
X110629999Y-102625000D01*
G75*
G02*
X110380000Y-102375001I0J249999D01*
G01*
X110380000Y-101824999D01*
G75*
G02*
X110629999Y-101575000I249999J0D01*
G01*
G37*
G36*
G01*
X111929999Y-101575000D02*
X112480001Y-101575000D01*
G75*
G02*
X112730000Y-101824999I0J-249999D01*
G01*
X112730000Y-102375001D01*
G75*
G02*
X112480001Y-102625000I-249999J0D01*
G01*
X111929999Y-102625000D01*
G75*
G02*
X111680000Y-102375001I0J249999D01*
G01*
X111680000Y-101824999D01*
G75*
G02*
X111929999Y-101575000I249999J0D01*
G01*
G37*
G36*
G01*
X113229999Y-101575000D02*
X113780001Y-101575000D01*
G75*
G02*
X114030000Y-101824999I0J-249999D01*
G01*
X114030000Y-102375001D01*
G75*
G02*
X113780001Y-102625000I-249999J0D01*
G01*
X113229999Y-102625000D01*
G75*
G02*
X112980000Y-102375001I0J249999D01*
G01*
X112980000Y-101824999D01*
G75*
G02*
X113229999Y-101575000I249999J0D01*
G01*
G37*
G36*
G01*
X109329999Y-102875000D02*
X109880001Y-102875000D01*
G75*
G02*
X110130000Y-103124999I0J-249999D01*
G01*
X110130000Y-103675001D01*
G75*
G02*
X109880001Y-103925000I-249999J0D01*
G01*
X109329999Y-103925000D01*
G75*
G02*
X109080000Y-103675001I0J249999D01*
G01*
X109080000Y-103124999D01*
G75*
G02*
X109329999Y-102875000I249999J0D01*
G01*
G37*
G36*
G01*
X110629999Y-102875000D02*
X111180001Y-102875000D01*
G75*
G02*
X111430000Y-103124999I0J-249999D01*
G01*
X111430000Y-103675001D01*
G75*
G02*
X111180001Y-103925000I-249999J0D01*
G01*
X110629999Y-103925000D01*
G75*
G02*
X110380000Y-103675001I0J249999D01*
G01*
X110380000Y-103124999D01*
G75*
G02*
X110629999Y-102875000I249999J0D01*
G01*
G37*
G36*
G01*
X111929999Y-102875000D02*
X112480001Y-102875000D01*
G75*
G02*
X112730000Y-103124999I0J-249999D01*
G01*
X112730000Y-103675001D01*
G75*
G02*
X112480001Y-103925000I-249999J0D01*
G01*
X111929999Y-103925000D01*
G75*
G02*
X111680000Y-103675001I0J249999D01*
G01*
X111680000Y-103124999D01*
G75*
G02*
X111929999Y-102875000I249999J0D01*
G01*
G37*
G36*
G01*
X113229999Y-102875000D02*
X113780001Y-102875000D01*
G75*
G02*
X114030000Y-103124999I0J-249999D01*
G01*
X114030000Y-103675001D01*
G75*
G02*
X113780001Y-103925000I-249999J0D01*
G01*
X113229999Y-103925000D01*
G75*
G02*
X112980000Y-103675001I0J249999D01*
G01*
X112980000Y-103124999D01*
G75*
G02*
X113229999Y-102875000I249999J0D01*
G01*
G37*
G36*
G01*
X109329999Y-104175000D02*
X109880001Y-104175000D01*
G75*
G02*
X110130000Y-104424999I0J-249999D01*
G01*
X110130000Y-104975001D01*
G75*
G02*
X109880001Y-105225000I-249999J0D01*
G01*
X109329999Y-105225000D01*
G75*
G02*
X109080000Y-104975001I0J249999D01*
G01*
X109080000Y-104424999D01*
G75*
G02*
X109329999Y-104175000I249999J0D01*
G01*
G37*
G36*
G01*
X110629999Y-104175000D02*
X111180001Y-104175000D01*
G75*
G02*
X111430000Y-104424999I0J-249999D01*
G01*
X111430000Y-104975001D01*
G75*
G02*
X111180001Y-105225000I-249999J0D01*
G01*
X110629999Y-105225000D01*
G75*
G02*
X110380000Y-104975001I0J249999D01*
G01*
X110380000Y-104424999D01*
G75*
G02*
X110629999Y-104175000I249999J0D01*
G01*
G37*
G36*
G01*
X111929999Y-104175000D02*
X112480001Y-104175000D01*
G75*
G02*
X112730000Y-104424999I0J-249999D01*
G01*
X112730000Y-104975001D01*
G75*
G02*
X112480001Y-105225000I-249999J0D01*
G01*
X111929999Y-105225000D01*
G75*
G02*
X111680000Y-104975001I0J249999D01*
G01*
X111680000Y-104424999D01*
G75*
G02*
X111929999Y-104175000I249999J0D01*
G01*
G37*
G36*
G01*
X113229999Y-104175000D02*
X113780001Y-104175000D01*
G75*
G02*
X114030000Y-104424999I0J-249999D01*
G01*
X114030000Y-104975001D01*
G75*
G02*
X113780001Y-105225000I-249999J0D01*
G01*
X113229999Y-105225000D01*
G75*
G02*
X112980000Y-104975001I0J249999D01*
G01*
X112980000Y-104424999D01*
G75*
G02*
X113229999Y-104175000I249999J0D01*
G01*
G37*
%TD*%
D11*
%TO.C,U2*%
X109280000Y-89200000D03*
X111280000Y-89200000D03*
X109280000Y-87300000D03*
D12*
X111280000Y-87500000D03*
%TD*%
D13*
%TO.C,USB1*%
X110030000Y-81945000D03*
X110530000Y-81945000D03*
X111030000Y-81945000D03*
X109530000Y-81945000D03*
X111530000Y-81945000D03*
X109030000Y-81945000D03*
X112030000Y-81945000D03*
X108530000Y-81945000D03*
D14*
X107830000Y-81945000D03*
X112730000Y-81945000D03*
X107055000Y-81945000D03*
X113505000Y-81945000D03*
%TD*%
D15*
%TO.C,X1*%
X122550000Y-101650000D03*
X122550000Y-103850000D03*
X120950000Y-101650000D03*
X120950000Y-103850000D03*
%TD*%
D10*
%TO.C,D_1*%
X132425000Y-119025000D03*
X132425000Y-122175000D03*
%TD*%
M02*
